<svg width="32" height="32" viewBox="0 0 32 32" fill="none" xmlns="http://www.w3.org/2000/svg">
  <!-- Пиксельная иконка в стиле ретро -->
  
  <!-- Фон -->
  <rect width="32" height="32" fill="#1a1a1a"/>
  
  <!-- Основная форма (буква E в пиксельном стиле) -->
  <rect x="6" y="6" width="4" height="4" fill="#00ff00"/>
  <rect x="10" y="6" width="4" height="4" fill="#00ff00"/>
  <rect x="14" y="6" width="4" height="4" fill="#00ff00"/>
  <rect x="18" y="6" width="4" height="4" fill="#00ff00"/>
  
  <rect x="6" y="10" width="4" height="4" fill="#00ff00"/>
  
  <rect x="6" y="14" width="4" height="4" fill="#00ff00"/>
  <rect x="10" y="14" width="4" height="4" fill="#00ff00"/>
  <rect x="14" y="14" width="4" height="4" fill="#00ff00"/>
  
  <rect x="6" y="18" width="4" height="4" fill="#00ff00"/>
  
  <rect x="6" y="22" width="4" height="4" fill="#00ff00"/>
  <rect x="10" y="22" width="4" height="4" fill="#00ff00"/>
  <rect x="14" y="22" width="4" height="4" fill="#00ff00"/>
  <rect x="18" y="22" width="4" height="4" fill="#00ff00"/>
  
  <!-- Дополнительные пиксели для стиля -->
  <rect x="22" y="10" width="4" height="4" fill="#ff0080"/>
  <rect x="22" y="18" width="4" height="4" fill="#ff0080"/>
</svg> 